<?xml version="1.0" encoding="UTF-8"?>
<svg xmlns="http://www.w3.org/2000/svg" width="512" height="512" viewBox="0 0 512 512">
<defs>
<linearGradient id="helm" x1="0" x2="0" y1="0" y2="1">
<stop offset="0" stop-color="#FFD84D"/><stop offset="1" stop-color="#F4A300"/>
</linearGradient>
<linearGradient id="body" x1="0" x2="0" y1="0" y2="1">
<stop offset="0" stop-color="#fff"/><stop offset="1" stop-color="#dfe6ee"/>
</linearGradient>
</defs>
<ellipse cx="256" cy="90" rx="110" ry="55" fill="url(#helm)"/>
<rect x="150" y="70" width="212" height="50" rx="20" fill="url(#helm)"/>
<rect x="156" y="110" width="200" height="120" rx="45" fill="url(#body)" stroke="#b8c2cc" stroke-width="4"/>
<rect x="175" y="130" width="162" height="70" rx="25" fill="#111827"/>
<circle cx="220" cy="165" r="18" fill="#41d8ff"/><circle cx="292" cy="165" r="18" fill="#41d8ff"/>
<rect x="190" y="230" width="132" height="110" rx="30" fill="url(#body)" stroke="#b8c2cc" stroke-width="4"/>
<circle cx="290" cy="260" r="10" fill="#0B5FFF"/>
<rect x="145" y="245" width="45" height="95" rx="18" fill="url(#body)"/>
<rect x="322" y="245" width="45" height="95" rx="18" fill="url(#body)"/>
<rect x="205" y="340" width="40" height="95" rx="18" fill="url(#body)"/>
<rect x="267" y="340" width="40" height="95" rx="18" fill="url(#body)"/>
<rect x="190" y="430" width="65" height="28" rx="12" fill="#2d3748"/>
<rect x="257" y="430" width="65" height="28" rx="12" fill="#2d3748"/>
</svg>